<mxfile host="app.diagrams.net" agent="Mozilla/5.0 (X11; Linux x86_64) AppleWebKit/537.36 (KHTML, like Gecko) Chrome/138.0.0.0 Safari/537.36 Edg/138.0.0.0" version="27.1.6">
  <diagram name="Trang-1" id="zhV0pubBpVFtbKJDcfsE">
    <mxGraphModel dx="1299" dy="559" grid="0" gridSize="10" guides="1" tooltips="1" connect="1" arrows="1" fold="1" page="0" pageScale="1" pageWidth="827" pageHeight="1169" math="0" shadow="0">
      <root>
        <mxCell id="0" />
        <mxCell id="1" parent="0" />
        <mxCell id="qlifUHfLEjSE8gU74goa-20" value="" style="rounded=0;whiteSpace=wrap;html=1;dashed=1;" vertex="1" parent="1">
          <mxGeometry x="41" y="334" width="200" height="127" as="geometry" />
        </mxCell>
        <mxCell id="qlifUHfLEjSE8gU74goa-18" value="" style="rounded=0;whiteSpace=wrap;html=1;dashed=1;" vertex="1" parent="1">
          <mxGeometry x="41" y="164" width="200" height="127" as="geometry" />
        </mxCell>
        <mxCell id="qlifUHfLEjSE8gU74goa-6" style="edgeStyle=orthogonalEdgeStyle;rounded=0;orthogonalLoop=1;jettySize=auto;html=1;exitX=1;exitY=0.5;exitDx=0;exitDy=0;entryX=0;entryY=0.5;entryDx=0;entryDy=0;" edge="1" parent="1" source="qlifUHfLEjSE8gU74goa-1" target="qlifUHfLEjSE8gU74goa-3">
          <mxGeometry relative="1" as="geometry" />
        </mxCell>
        <mxCell id="qlifUHfLEjSE8gU74goa-1" value="Ánh sáng phản chiếu qua mô da" style="rounded=1;whiteSpace=wrap;html=1;" vertex="1" parent="1">
          <mxGeometry x="-130" y="207" width="120" height="60" as="geometry" />
        </mxCell>
        <mxCell id="qlifUHfLEjSE8gU74goa-7" style="edgeStyle=orthogonalEdgeStyle;rounded=0;orthogonalLoop=1;jettySize=auto;html=1;exitX=1;exitY=0.5;exitDx=0;exitDy=0;entryX=0;entryY=0.5;entryDx=0;entryDy=0;" edge="1" parent="1" source="qlifUHfLEjSE8gU74goa-2" target="qlifUHfLEjSE8gU74goa-4">
          <mxGeometry relative="1" as="geometry" />
        </mxCell>
        <mxCell id="qlifUHfLEjSE8gU74goa-2" value="Tiếng ngáy" style="rounded=1;whiteSpace=wrap;html=1;" vertex="1" parent="1">
          <mxGeometry x="-130" y="381" width="120" height="60" as="geometry" />
        </mxCell>
        <mxCell id="qlifUHfLEjSE8gU74goa-12" style="edgeStyle=orthogonalEdgeStyle;rounded=0;orthogonalLoop=1;jettySize=auto;html=1;exitX=1;exitY=0.5;exitDx=0;exitDy=0;entryX=0.008;entryY=0.176;entryDx=0;entryDy=0;entryPerimeter=0;strokeColor=#33FFFF;" edge="1" parent="1" source="qlifUHfLEjSE8gU74goa-3" target="qlifUHfLEjSE8gU74goa-5">
          <mxGeometry relative="1" as="geometry">
            <mxPoint x="289" y="237" as="targetPoint" />
          </mxGeometry>
        </mxCell>
        <mxCell id="qlifUHfLEjSE8gU74goa-3" value="MAX30102" style="rounded=1;whiteSpace=wrap;html=1;" vertex="1" parent="1">
          <mxGeometry x="81" y="207" width="120" height="60" as="geometry" />
        </mxCell>
        <mxCell id="qlifUHfLEjSE8gU74goa-4" value="IMNP441" style="rounded=1;whiteSpace=wrap;html=1;" vertex="1" parent="1">
          <mxGeometry x="81" y="381" width="120" height="60" as="geometry" />
        </mxCell>
        <mxCell id="qlifUHfLEjSE8gU74goa-9" style="edgeStyle=orthogonalEdgeStyle;rounded=0;orthogonalLoop=1;jettySize=auto;html=1;exitX=1;exitY=0.5;exitDx=0;exitDy=0;strokeColor=#33FFFF;" edge="1" parent="1" source="qlifUHfLEjSE8gU74goa-5" target="qlifUHfLEjSE8gU74goa-8">
          <mxGeometry relative="1" as="geometry" />
        </mxCell>
        <mxCell id="qlifUHfLEjSE8gU74goa-5" value="ESP32" style="rounded=1;whiteSpace=wrap;html=1;" vertex="1" parent="1">
          <mxGeometry x="297" y="187" width="120" height="290" as="geometry" />
        </mxCell>
        <mxCell id="qlifUHfLEjSE8gU74goa-8" value="Màn hình laptop" style="rounded=1;whiteSpace=wrap;html=1;" vertex="1" parent="1">
          <mxGeometry x="481" y="297" width="63" height="70" as="geometry" />
        </mxCell>
        <mxCell id="qlifUHfLEjSE8gU74goa-11" style="edgeStyle=orthogonalEdgeStyle;rounded=0;orthogonalLoop=1;jettySize=auto;html=1;entryX=0.5;entryY=0;entryDx=0;entryDy=0;strokeColor=#FF0000;" edge="1" parent="1" source="qlifUHfLEjSE8gU74goa-10" target="qlifUHfLEjSE8gU74goa-5">
          <mxGeometry relative="1" as="geometry" />
        </mxCell>
        <mxCell id="qlifUHfLEjSE8gU74goa-15" style="edgeStyle=orthogonalEdgeStyle;rounded=0;orthogonalLoop=1;jettySize=auto;html=1;entryX=0;entryY=0.25;entryDx=0;entryDy=0;strokeColor=#FF0000;" edge="1" parent="1" source="qlifUHfLEjSE8gU74goa-10" target="qlifUHfLEjSE8gU74goa-4">
          <mxGeometry relative="1" as="geometry">
            <mxPoint x="16" y="392" as="targetPoint" />
            <Array as="points">
              <mxPoint x="20" y="124" />
              <mxPoint x="20" y="396" />
            </Array>
          </mxGeometry>
        </mxCell>
        <mxCell id="qlifUHfLEjSE8gU74goa-10" value="Nguồn" style="rounded=0;whiteSpace=wrap;html=1;" vertex="1" parent="1">
          <mxGeometry x="318" y="93" width="78" height="62" as="geometry" />
        </mxCell>
        <mxCell id="qlifUHfLEjSE8gU74goa-14" style="edgeStyle=orthogonalEdgeStyle;rounded=0;orthogonalLoop=1;jettySize=auto;html=1;entryX=0;entryY=0.776;entryDx=0;entryDy=0;entryPerimeter=0;strokeColor=#33FFFF;" edge="1" parent="1">
          <mxGeometry relative="1" as="geometry">
            <mxPoint x="201" y="410.48" as="sourcePoint" />
            <mxPoint x="297" y="411.52" as="targetPoint" />
          </mxGeometry>
        </mxCell>
        <mxCell id="qlifUHfLEjSE8gU74goa-16" value="" style="endArrow=classic;html=1;rounded=0;entryX=0;entryY=0.25;entryDx=0;entryDy=0;strokeColor=#FF0000;" edge="1" parent="1" target="qlifUHfLEjSE8gU74goa-3">
          <mxGeometry width="50" height="50" relative="1" as="geometry">
            <mxPoint x="20" y="222" as="sourcePoint" />
            <mxPoint x="70" y="170" as="targetPoint" />
          </mxGeometry>
        </mxCell>
        <mxCell id="qlifUHfLEjSE8gU74goa-19" value="Khối PPG" style="text;html=1;align=center;verticalAlign=middle;whiteSpace=wrap;rounded=0;" vertex="1" parent="1">
          <mxGeometry x="111" y="170" width="60" height="30" as="geometry" />
        </mxCell>
        <mxCell id="qlifUHfLEjSE8gU74goa-21" value="Khối PCG" style="text;html=1;align=center;verticalAlign=middle;whiteSpace=wrap;rounded=0;" vertex="1" parent="1">
          <mxGeometry x="111" y="337" width="60" height="30" as="geometry" />
        </mxCell>
        <mxCell id="qlifUHfLEjSE8gU74goa-23" style="edgeStyle=orthogonalEdgeStyle;rounded=0;orthogonalLoop=1;jettySize=auto;html=1;entryX=0;entryY=0.5;entryDx=0;entryDy=0;dashed=1;strokeColor=#33FFFF;" edge="1" parent="1" source="qlifUHfLEjSE8gU74goa-22" target="qlifUHfLEjSE8gU74goa-2">
          <mxGeometry relative="1" as="geometry">
            <Array as="points">
              <mxPoint x="-226" y="411" />
            </Array>
          </mxGeometry>
        </mxCell>
        <mxCell id="qlifUHfLEjSE8gU74goa-22" value="" style="shape=actor;whiteSpace=wrap;html=1;" vertex="1" parent="1">
          <mxGeometry x="-246" y="84" width="40" height="60" as="geometry" />
        </mxCell>
        <mxCell id="qlifUHfLEjSE8gU74goa-24" value="" style="endArrow=classic;html=1;rounded=0;entryX=0;entryY=0.5;entryDx=0;entryDy=0;dashed=1;strokeColor=#33FFFF;" edge="1" parent="1" target="qlifUHfLEjSE8gU74goa-1">
          <mxGeometry width="50" height="50" relative="1" as="geometry">
            <mxPoint x="-226" y="239" as="sourcePoint" />
            <mxPoint x="-162" y="230" as="targetPoint" />
          </mxGeometry>
        </mxCell>
        <mxCell id="qlifUHfLEjSE8gU74goa-25" value="" style="endArrow=none;html=1;rounded=0;strokeColor=#FF0101;" edge="1" parent="1">
          <mxGeometry width="50" height="50" relative="1" as="geometry">
            <mxPoint x="141" y="512" as="sourcePoint" />
            <mxPoint x="253" y="512" as="targetPoint" />
          </mxGeometry>
        </mxCell>
        <mxCell id="qlifUHfLEjSE8gU74goa-26" value="" style="endArrow=none;html=1;rounded=0;strokeColor=#33FFFF;dashed=1;" edge="1" parent="1">
          <mxGeometry width="50" height="50" relative="1" as="geometry">
            <mxPoint x="141" y="579" as="sourcePoint" />
            <mxPoint x="253" y="579" as="targetPoint" />
          </mxGeometry>
        </mxCell>
        <mxCell id="qlifUHfLEjSE8gU74goa-27" value="" style="endArrow=none;html=1;rounded=0;strokeColor=#33FFFF;" edge="1" parent="1">
          <mxGeometry width="50" height="50" relative="1" as="geometry">
            <mxPoint x="140" y="559" as="sourcePoint" />
            <mxPoint x="252" y="559" as="targetPoint" />
          </mxGeometry>
        </mxCell>
        <mxCell id="qlifUHfLEjSE8gU74goa-28" value="" style="endArrow=none;html=1;rounded=0;strokeColor=#000000;" edge="1" parent="1">
          <mxGeometry width="50" height="50" relative="1" as="geometry">
            <mxPoint x="140" y="537" as="sourcePoint" />
            <mxPoint x="252" y="537" as="targetPoint" />
          </mxGeometry>
        </mxCell>
        <mxCell id="qlifUHfLEjSE8gU74goa-29" value="Nguồn điện vào" style="text;html=1;align=center;verticalAlign=middle;resizable=0;points=[];autosize=1;strokeColor=none;fillColor=none;" vertex="1" parent="1">
          <mxGeometry x="262" y="498" width="102" height="26" as="geometry" />
        </mxCell>
        <mxCell id="qlifUHfLEjSE8gU74goa-30" value="Tín hiệu Analog" style="text;html=1;align=center;verticalAlign=middle;resizable=0;points=[];autosize=1;strokeColor=none;fillColor=none;" vertex="1" parent="1">
          <mxGeometry x="262" y="524" width="101" height="26" as="geometry" />
        </mxCell>
        <mxCell id="qlifUHfLEjSE8gU74goa-31" value="Tín hiệu Digital" style="text;html=1;align=center;verticalAlign=middle;resizable=0;points=[];autosize=1;strokeColor=none;fillColor=none;" vertex="1" parent="1">
          <mxGeometry x="262" y="546" width="98" height="26" as="geometry" />
        </mxCell>
        <mxCell id="qlifUHfLEjSE8gU74goa-34" value="Tương tác" style="text;html=1;align=center;verticalAlign=middle;resizable=0;points=[];autosize=1;strokeColor=none;fillColor=none;" vertex="1" parent="1">
          <mxGeometry x="262" y="566" width="74" height="26" as="geometry" />
        </mxCell>
        <mxCell id="qlifUHfLEjSE8gU74goa-35" value="&lt;img class=&quot;WACImage SCXW124730238 BCX8&quot; alt=&quot;A diagram of a computer&#xa;&#xa;AI-generated content may be incorrect., Hình ảnh&quot; src=&quot;data:image/png;base64,iVBORw0KGgoAAAANSUhEUgAAA9IAAAHNCAYAAADyjEO5AAAAAXNSR0IArs4c6QAAAARnQU1BAACxjwv8YQUAAAAJcEhZcwAADsMAAA7DAcdvqGQAAFEKSURBVHhe7d0LeFXVnf//T9RqK1anfxtJMETTaflrsTIh2AmXX2tTBQxNbUCqYJl2YBQRo4UoiiJWClSRSxUVHQf7KBWkCqlPSgSUOFoucbik2FKVP200RBLNdDr99aaC8t9r73XO2eeWnB2ScHLyfj3Pfth7rX322edULZ/zXWvtrKMOAQAAAACAlJxg/wQAAAAAACkgSAMAAAAAEABBGgAAAACAAAjSAAAAAAAEQJAGAAAAACAAgjQAAAAAAAEQpAEAAAAACIAgDQAAAABAAARpAAAAAAACIEgDAAAAABAAQRoAAAAAgAAI0gAAAAAABECQBgAAAAAgAII0AAAAAAABEKQBAAAAAAiAIA0AAAAAQAAEaQAAAAAAAiBIAwAAAAAQAEEaAAAAAIAACNIAAAAAAARAkAYAAAAAIACCNAAAAAAAARCkAQAAAAAIgCANAAAAAEAABGkAAAAAAAIgSAMAAAAAEABBGgAAAACAAAjSAAAAAAAEQJAGAAAAACAAgjQAAAAAAAEQpAEAAAAACIAgDQAAAABAAARpAAAAAAACIEgDAAAAABAAQRoAAAAAgAAI0gAAAAAABJB11GH3gYxw+MjHavmfv9kjoGP6n3Wa3UNv9v5/77F7QO/xyc8OtnsAgGQI0sg4JkjPXP6KsrJsAxBQ9j+cqju/92V7hN6sdeds/eG1RfYIyHz9R21Qn7zR9ggAkAxBGhknFKQnfaNInzn9VNsKpGb/263a89tGgjRcJkgfbq1Xv8IFtgXIXAe2XKbci58kSANACpgjDQAAAABAAARpAAAAAAACIEgDAAAAABAAQRoAAAAAgAAI0gAAAAAABECQBgAAAAAgAII0AAAAAAABEKQBAAAAAAiAIA0AAAAAQAAEaQAAAAAAAiBIAwAAAAAQAEEaAAAAAIAACNIAAAAAAARAkAYAAAAAIACCNAAAAAAAARCkAQAAAAAIgCANAAAAAEAABGkAAAAAAAIgSANdok4rck7SgKV19rgn6In3DAAAAHS/rKMOuw9khMNHPtbM5a9o0jeK9JnTT7Wt3au1aryGN1Rq/8xi25L+euI9d4X9b7dqz28bdef3vmxb0Ju17pytw6316le4wLYAmevAlsuUe/GT6pM32rYg07z79h/sHnB89D3nTLvX8xGkkXGOd5B2A+m0Ko1c0aQHy3Nsa/rrafft3a+0pP4ZleXaxk5AkIYfQRq9CUE68627f7P+0PxHewR0rwu/cp6KSwfZo56PII2MEzxImyHNS5QXG8ia1+iGwknaXLZK2x6boKalJ+lKbW27Yuu+Zr1GbRirTWOcP33XrG/j9bHV4LbODa5F1dfkqem6I5pWZI7N5x0hbQgdO9q47/RkPlOFNK/z75MgDT+CNHoTgnTmM0G6b//PKv+8frYF6B71L//WrUZnUpBmjjSQiA3RWtGk/U6IzrbN7fua7mpxwl3RBD3Yslz+GFw480iaDJsu1rQWX4h2Jb/vdFXcBSEaAAAASAVBGogVqkTP2ppgiHOttyCX3Vbsts1Wa12Fhof7H1eTL+iZKnOihbxCQ6q1aIQGXLNGrba9rfeKu5a555zxqm62x2FeNbqyWlo25iTdUNXitHmLivmvF33fFc4ZIeZc57pVC8P3MSBnoeptr8t970hftfN5oj+HXwrX2+3rc65THftZ3f48DS+Mfb35rKHPGBL/WQEAAIBj1cVBeocWZGUpK2ucVjfZJiCtOcHLhuiE1eNF9cqrP6L9LUe0bUW5E04jIdALxIVa6/R5/fW6MjYkJpBd/ox7LZn39Fe/23iv1OWo7LEmLSmTZmw4knDus3vfNWO1zd73/g2Fqiz0v1eVKmsKbL+51lxdGQ623vflVu5Nf32BNpkfBdrUxvVMKB8z171X93rXNahykdflMiF6TL2W2O9lf8tWzVDo9TkqLi3X5pqXIiF+d62Wla3SFVHVdwAAAODYdGmQblmzWHPmbVfzaunqmavlrxMB6cdUL0domcq1ZEKSwc2zKsPDibOLx2qkEzeb3CpwnZ51AuSMDber0O01AXm5GxJXRlVIA0j6Xp3J3Le0ZJ4vwBfdrrWzou97xnWhfi+s6vUGL6zaoHpXKKDnTtCUWd5uW5Jdr7VuvfsjRnjYedFk90eAMOfe9psh6OFKf7GKfe/nfk/V61Vnv6f6l+dqZOnXAgzNBwAAANrXtRXp//OQjt45VDkT1uno0hLbCEh//etf7V66qFJloROinRC3dpazPzfZ0OQkmhu0zwngeVFrd+Qo73y7m67c+zafPTRM2tuu9FeB29DaWC+dXxAVVPMKnGDcQU0NVRpZcK49MpJ8h77h5FH3mvs1jSqrUtMhc9CiptfLNaq456ycDgAAgJ6hS4N0Tl6DN7T726vVkpfj/JW4E9Ut8K5rD1vWjIs67mw7fuh8jh/usEc4Vr/4xS80adIkHThwwLakATucu3DmVs2onqTh/nm5Ga3cN1Q6sqXlI7BCAbpwkgba4d9royrgXoV72cvO/3bNL2mTxqqYBckAAADQybphaPd8zX/maq3sLZkEKRk/frxeffVVDRgwQFdddVUaBGr/cO5iTdswz138K+VFqnILNFChSmiIqYja3XSV8L5Tl51fGBnmbZmqckeZavbmhrfskRH9HYaGfpsAHb3qeIQ7vHtRraqdc8WwbrTjL3/5i90DAABIXRcG6RbVVq3X/EvvUImTSea8EFPNbVqtcVkLtMNUlt0FyWzF1223x6bfnh7FvGboHMkJ6LlR5zRo5bdDr83SuDXR9Wm3qhy+trP5Ksymb9ya1XZxNG9bEBf+a9vpR6pOOOEE/eAHP5B5jPm6det03nnnaeLEiWpoaLBnHGdFt9sFvhKthJ1Isa6IW3ysQpXV8zSlCyq77vBpJyyG3qt+zSRttvvBxN+3N1c8xZWui0rc6v3dVfbfteY1WpnisPBEvBDs+wFj9+PuiuNRfMHdLJQWNwzdHd49V5XTxLButKupqUkXX3yxnn/+edsCAADQvq4L0k21WvfMfJUUS0MvnS/NrU0Qiudo2Aslbpg6evApjZ07TFn9G3SzOT7arKfGz9HimDDsKr5DR3c41xz/lJqP3qGhtlnPOOF6pnmtszn96ydOD68WboLysF+b8yP9ct7PH4bXT1yngoNef/PqsZozNCbIz93Tdj8CMZXo/Px8HTlyRB999JEbqE2F2gz5TodA7S0WZuYPpxamvdW3zUrd3txdbwXvyOJjbQkFyLhHQSURWsgs9F51XzWrVydjhzuPcc5NMFzd3LdZXCx0rQE5I6QNySu+0Yo1rX6VNC3Pe21hg0aZFchj5k2nLHeCHtwwz7tXc71HCrRklsLzpt3PrUnhR3UNb6j0Vjz3/agQ+rwqY1g32md+xOvfv79KS0s1cOBAPfPMM/r4449tLwAAQGJZTig8avc7lRtctd1dbMxUp1d/O1frypu1boKtEJnKc/91GndwnSbmmYb4c8y859wDN9trxDBV6aUFav7ZRHfutXtu1bjwsXMHWpA1zPnjqO5IuABzdH/0/Tpi7q+9/lQ8/fTTdg8hW7du1aOPPuqG6ZCTTz7ZPTYV6nnz5qmgoMD2pObwkY81c/krmvSNIn3m9FNtK7qL+zgtJ+AmfHxYB5hnZq8saAo0Z9vcw91a3qF53vvfbtWe3zbqzu992bYg0/3ud7/TF77wBXf/pJNO0tlnn625c+e6P+r9sf5OHW6tV7/CBW4/kMkObLlMuRc/qT55o20LMs26+zerb//PKv+8frYF6B71L/9Wfc85U8Wlg2xLz9dFQdqE1MUq8IXMuKCbJEg3zIwE364I0u55E9fbI2l+NwZpEwjfess///PYmWpKd3vjjTfsXucww+Rj/zE88cQT3T+nTp2qH//4x/rEJz7hHqeCIN2N3Oc6y1d59x4hlnpFO1r4mdah52mbxcUK12tUvf+RV+1pUfU1FdK8IK+JIEj3Tv/6r/+q1atX68MPP3Snnpj/BmVnZ+uGiQN11XDnv9///CN7JpC5CNKZjyCN44UgnaLYsOoXCq7dHaQj9zRf293h4N1fkUa8KVOm6Kc//an7l1fDVIPMP5Lf/e533Wq0qQwFRZDuXqZi7J+nPKODIdpjQnCeb160WVE8QCB2g/1cjVwRrILtR5BOD2a6hxmZErsdPnw45XZ/W7L90PF///d/67777ov6Uc8E6qws6dOnnqhbK6Zq+ve+rU+fxn9TkLkI0pmPII3jhSCdkgTDuF1e+9VfsmG0W4N0/LWj+9sPygTpztfY2KjPfe5z7l+YTfXH/KNohlKaAG3mTncUQRrHwgTpG747RgW5Z4QXFvRvRqL27ty66x7Mv5P+wOnfEgXXZO3JQmyyfbOlyvz4Zv77Ebslazdbsr5du3bp/ffft1f2OF+D8z1I3xz1Vf3H4jnKPvMztgfIPATpzEeQxvFCkE5FWwHTXW1bXkX4OATpSLi3of6Z7h3ajWjXXnutHnvsMfcv7GY+9A9/+MPA86ETIUjjWJggvWThXH21MPhoiExj/t0MhcyOBNO2XhO7BTnXv5mqcWd49tlnNWHChHCID/2Q8OVBebrzX87WNyY85LYDmYwgnfkI0jheCNIpcAOnWR07HGj9vHC7Z7UTaP9P7bEFaXutORqrp5xrlPyyrSDtHLrB92qFBpzP39GsgqWRCjlBunuZarRZobu8vFwLFixwK9OdhSCNY8HQ7t7H/N/gF7/4Rb355pvh4yFDhmjJkiU6/1PPs9gYeg2CdOYjSON4IUgDnWTz5s1ueP785z9vWzoPQRrHgiDd+1RXV+ub3/ymu/9P//RPWrx4sb7+9a+7x607ZxOk0WsQpDMfQRrHSyYG6a57jjTQhpEjR3ZJiO4UZqVo//Oc3WP7XGO7rdht+3oEs5K2757NglwJP4NZ6Osk3VAVena797rIcazYfu/Y/z2FtuTfV8y9xWmr37vf6D5zfmrP4gZC7r77bl1wwQXauHGj6uvrwyEaAAAgGYI0EMUJZ3PXa1S9fZxT+PFLR7S/xW71q7RvTFsBs2dYNibFwFlTkSR0j9AyexRhVtn2fVe+7ytRGK5fmugaEcn7Y1f3DinWtA3SlUvr7DHQtt///vdukP71r3+tUaNG2VYAAIC2EaQBv92Pq/L8yvDjllrr1mtz2VgV+x+/lDtBd60o1+aal9Rqm0LV0XAV9po1vj5TJR2v6iqvEuxt0SHWPD850uec22w7XDHXjgqJXgW2OvT6qPdtQ9k8zSibm1LgHFg6Vvtejjmv+SVtkrmGPW6L831NmSXta4z54WH3Ql1prmEP4yTp974rJ0Sfn+S1RZO15PURbVS5gQgzxWTMmDH2CACQkfber3MG5mr5Xnvc6d7TczNz3fc4Z+D92mNbkdkI0kCYE1gfmasZX7Wr3Tmy8wul6kl6NiaUZZc/o/2PTVC2e+RVRzeVNoWrsGvPn6ThUSG1SpU1Bdrm9jdpiT/EOoFx+LRCrQ1VcDcUqrIwFLRt5fX8rfbazmudkBgdpueqsqHS6w/fU3sKdMW8VRq5KIXAmf81jXq9Njr4162XSkvU8XX26rTCyS5rZ5bY41ht9Y/1vqukr81RcWm5lsWGfwAA0As5IfeJe3Tz6mZVdNn03LN0+dJq3TzqIe3ad5MG21ZkNoI0EPaWmqrLledff6Podm1b4YSyMb6KcGzV11SxtUp3lUfWqS+cuVUzFi2JqizPuC4Ucr2gp9cbElePnffc32KHlptrV89zAmUo3OeozA3AMdf2hf+U2cp6+0O8zf3Wqy4cuFtUVyONKj7XHrfDVJYXlTvnR76f1qol2rdisvcZE2irP7t8QtLXhbg/gCyKDv8AAKC3MZXiQbpxU6ny4x8n1InM+5Rp8aYN2v6ubULGI0gDIc0N2udEtDz/MG6HW3221eK1s5yG6kka7gTq0Bzp1kYnrtm2cNjOaXvubxQzFNlUqO1r/RVi99plBdGV39wCDbS7xyq7fHl0dTyJ7GLf8G53WHfMcPewKlUW+r8HZxszVzM2PBMeLm/mnd9dMzbqh4co7fWnol+BRjoxuilqiDwAAEh7Zhj2zPVxxYbWminu0OmpNe85R7u0PIWh2q01s3WjHlLVfdKN9/qv2dbr27t2fH/y9wnKGyIevva76zV14BQ9lyyct9ePLkWQBkIONWiz3U2mcKYXqPdvmKfN0x6PVDzLVtlh2/7NFx7blKOyx7zXmKDuVb9j50l3lVCFu50h3rlmeLdXBfeGdX8tyRDyBIuNOdu0IttthqqbxdzmJRuC3l5/ijrxxwYAAHB8mRA95BbpgdpmPVp6lm1NQdGP9PbSsRpculJv3zrCNhpDVLGvo0O9E7w26ft0sb5j9ei+lbq8rz1GtyJIAyFuFdPPzE9Osjq3r+LpzaNuUJPtOhZeUDdzqKu0qa4l8bXdynknCg/xrtAm2xTPDO+Wc091dlh3B6vFpppd7a9ae5V78+OB+z2315+qzv6OAADAceGF6BrdvDpBYNzhLSKWeJGv97T93kGR/qpG34/0KVS0k1479rUx73PvVttumHOn6Lmatu4zJDQMXVo8MVR59zRWedV4d/NX66lIH1cEaSDErWL6hwPnqOw6U3nOi6vW1q+ZpM2z7OreoaHZ/uHR7rOaU3y8VOy5bpi0c4rjrm0qtr737iTeEO8qbY57nFSEGd6taSNUmXRYdwqc0P5gVLV6q7vy9owNR/SgGcrdXn+q3NEF8cP0AQBAD7L3fhuiE1ePF+/vr137mvX2vr16YNQ9Kn9kl+2xoXRAtdNn+/eX6Zxwf/uSX9vPe5+aS/ba92lW1YDpGhJ1bo1ufDGVa5kFy0y/3M8bqbzXaLGm2etX6+ZN0zXHF7Jx/BCkgbBzleeEyaZD9tAwC3/Z5yD75/2uLGjSfv8CYI+ZxcVGRM4xK06HFgxrj/Mea2dF5kgPKJykgeE5xebadqVut9+u4B1+785ih3jbo4TM8O4yaWTSYd3pw51bPqskte8fAIAeqL6+XnV1GfyECjNXeuI90qiHdFWSIdg3f3es/TvJWRp2Sam0v9Gr1u5doxs33aaq64a4vW5IvfUhjV6+IuXqbdJr+5n30UOa7xtuPvg6J+zGvE9K10qqVA+Uhz7HEA2vkDY2NtpjHE8EaSDMq0AveyRmVe64Kmmi6mixpkWd4w/RXl9knrCpAPsfn+Wbe203/7lemPb1R4Xo+GvHiznH/DiQ6DFZ9nNGPlvstb37iPTHHpvzU50XHtLe/bfVn6zPW1V8yYTO/rEBAID0MXDgQI0bN06jRo3KvEC9abqGOCH65tUdq8C2vvOaE8D7q789dvXN1wV2t7O472PuNTxs22xlWmz7kdkI0oCfGUqt9apjteeeyzwy7PzOHfoOAEC6Ofnkk3XnnXdq8+bNGjp0qEaOHJlRgdobzj1EFatv08ZbBrU9n/l4cp8d7Q3rjmwsANYbEKSBKGaI81htKkxxfjPSTJ1WmGH1nT70HQCA9DN58mSdeeaZ7v4rr7ziBupLL7205wdq/3DuQTepqsIswJVska542WdfKG06qIP22PVuo35jdztLwvdBr0GQBmK5Q5xTnN+MNGOGe/O/HQCgdzBV6fnz5+uUU07RBx984LaZQD1s2DBdcsklGVOhHnydXaQrwfOlExo0IX7xsXuna2PFtM6tFMe9j8PM7U66MjcySdZRh90HMsLhIx9r5vJXNOkbRfrM6afaViA1+99u1Z7fNurO733ZtqA3a905W4db69WvcIFtATLX0w9fohffGqaT+ngzS0N/RfT/VTHRfnv9RqrndnW/keq57fUbqZ57rP1GsnPNZgLzhx9+aFs9J510kj7++GO3Qr1q1SplZ2dr3f2b1bf/Z5V/Xj97VhoyQfSJ/tq1NLRAl2Ue9VTihGEzlHppvp4eWCb5VvN2H5P14hjf6yKPk3JVVOvt8OJj5rFU0a+PiO+LvnZsv3ccmRd9m6r23aTB7n5714oXetyXe7/ljc5n3qDS2shQ8T2P5Kpc9rO430l0f7qqf/m36nvOmSoujfvCeyyCNDIOQRrHgiANP4I0epPqn1yq514fpk+c1l9ZWVm21fnLYoL9TO83Uj23q/uNts5taWnRvffeGxWwTzzxRPdPU5VeuHChBg/2Yl2PCNLISARpoAcgSONYEKThR5BGb3Jgy2XKvfhJ9ckbbVvQE4wfP17PPfecDh8+rBNOOMHdLr74Yi1atEiFhdGTnQjSmaatynp6ycQgzRxpAAAAoAd68803tW7dOh05csQdym0C9I4dO/TCCy/EhWhkoiGq2Jf+ITpTEaQBAACAHujuu+92h3SPGDFC27dv15YtWzRkSGgeMICuRJAGAAAAepg33nhDf/zjH90KtFmp+6KLLrI9ALoDQRoAAADoYfr376/nn39excXFtgVAdyJIAwAAAD1Mnz597B5SYR4rdc7AKXruXdsAHCOCNAAAAIA0ZlantiHYPDt5YK6W7/V64iTpzy5dqV33STW737Mtx8g879p5n8gWH9Ld8D5zvVrtcVDmmdHnPLLLOzCf6xiuhc5HkAYAAACQtvY8Yh7xtFKX97UNKtVvnkhUXXYCd8l0bbRHsUyYnl9kD46BG3AnvqYHapv19j671Y5RTUmuptZ0UlCP1Xes5l+yQXO66voIjCANAAAAID29u16P7n9IV8U84qn0kgvjq8t7t2lxxW262R6G+arHQ0oGOX/erz22y6tg36/n3KHftrrcVuXXuVb58ttUtc8f7B1O0H209iHpltltDB83lXX7HmYLVZtDbDXd679f22xzSHbpNF3Q5vXRnQjSAAAAANLSnqrp0iUjlG2Pw4qG64IXt0YF3j077tHNQ4fbI8uE6KjqcbUTtO9ReVSIvUc3Nk6L9G+anrTya95DFcM12B5HccL01IqaJMPHTYg2lfXQfezVA/vLIhVsE6JLpuuCUP9qafFyrytiiIYnvT66G0EaAAAAQBp6Twf3SxecfZY99nNC5YAN2h6uzu7StuW3aXhM5VqDbnKCqb96bMKo3Q0r1QPloedve/0bGxvtsZ93P6Pz8+1xvP75pQlf21qzQosrqlURvr+zdPmtpoK9xq2Ot+7eoI2jfJV3576r4u7TXj/mBwQcHwRpAAAAAGmoUY2bSpWfYw9jDB7qG97tDutOUik2fMOmy+MqvV3vYGONtLwsMqzbbL753G7/gPyoyrsJzbGyz75Q2nRQB+0xjh+CNAAAAID0826jfmN3Exo0XBfYiq43rDtUVfYJBWjfsOlEld7UnKX+A5JVqz0mECetWFdU22Hd/u2m5OE/kZz+Gm13cXwRpAEAAACkn775usDuJmaGYd+jbXuTDOt2uEOmbYCNDKvuuMFDb5OWb4ssVubnhPZHl5eqtCh+KLpbXd7fmHRIdqJ+t0odq+Vg0lXJ0b0I0gAAAADSUL7yR9WoscUeJmCC7eKJZW0P6/YFVPNs52Ma2u3OXb5H5bHPjbaLhem+H0Wv5m2ZFbdjFzHzP2c61P906PnX7urgdt+n9Z3XpFH91d8e4/ghSAMAAABIQ95Q6t+808Yq1YOGu4+7Sjis25Fd+iM9oOkaYuclD2mcpl33lSavKqdg8HXNenv1hbqxxD/feYNKa5v1aGmihdGMIapwH49lHr9l7+XFMdq1dKydF+31/2aivd4T/fVAgiHo7tDxRKuYo9tlHXXYfSAjHD7ysWYuf0XfGdMJT9xHr/Pf//tX7flto+783pdtC3qz1p2zdbi1Xv0KF9gWIHMd2HKZci9+Un3ymIGZqdbdv1l9+39W+ef1sy09gFvpPaipQecSZyTzCK1tGt4Dv4v6l3+rvuecqeLSThhfnyYI0sg4oSANdNRZnzmVIA0XQRq9CUE68/XIIO3Y80iutg3tnDnOPZkZCj5HP2qj6p2+CNJAD/DRx/wjjWN34glZdg+9GUEavQlBOvP11CDtVWJXKL/W/zzoXsZU5u+V5oeHgvcsmRikmSONjGMCEBvbsW4AACBdDFHFvl4coo2+Y/VoDw3RmYogDQAAAABAAARpAAAAAAACIEgDAAAAABAAQRoAAAAAgAAI0gAAAAAABECQBgAAAAAgAII0AAAAAAABEKQBAAAAAAiAIA0AAAAAQAAEaQAAAAAAAiBIAwAAAAAQAEEaAAAAAIAACNIAAAAAAARAkAYAAAAAIACCNAAAAAAAARCkAQAAAAAIgCANAAAAAEAABGkAAAAAAALIOuqw+wAAwKd152wdbq1Xv8IFtgXIXAe2XKbci59Un7zRtgWZZt39m3XkwyP2COhe5ww8W8Wlg+xRz0eQBgAgCYI0ehOCdObbt+OA3QOOj4FDP2/3ej6CNAAASRCk0ZsQpAEgdcyRBgAAAAAgAII0AAAAAAABEKQBAAAAAAiAIA0AAAAAQAAEaQAAAAAAAiBIAwAAAAAQAEEaAAAAAIAACNIAAAAAAARAkAYAAAAAIACCNAAAAAAAARCkAQAAAAAIgCANAAAAAEAABGkAAAAAAAIgSAMAAAAAEABBGgAAAACAAAjSAAAAAAAEQJAGAAAAACAAgjQAAAAAAAEQpAEAAAAACIAgDQAAAABAAARpAAAAAAACIEgDAAAAABAAQRoAAAAAgAAI0gAAAAAABECQBgAAAAAgAII0AAAAAAABEKQBAAAAAAiAIA0AAAAAQAAEaQAAAAAAAiBIAwAAAAAQAEEaAAAAAIAACNIAAAAAAARAkAYAAAAAIACCNAAAAAAAARCkAQAAAAAIgCANAAAAAEAABGkAAAAAAAIgSAMAAAAAEABBGgAAAACAAAjSAAAAAAAEQJAGAAAAACAAgjQAAAAAAAEQpAEAAAAACIAgDQAAAABAAARpAAAAAAACIEgDAAAAABAAQRoAAAAAgAAI0gAAAAAABECQBgAAAAAgAII0AAAAAAABEKQBAAAAAAgg66jD7gM92rv/8ze7B3SNvv/PqXYPvUXrztk63FqvfoULbAuQuQ5suUy5Fz+pPnmjbQsAIBmCNDLG1tcOae2W/fYI6FwjLuynK78+wB6htyBIozchSANA6gjSyBgmSP/ytRaVl3zJtgCd45U9v9cZn8oiSPdCBGn0JgRpAEgdc6SRcU488QQ2tk7dAAAAAD/+hggAAAAAQAAEaQAAAAAAAiBIAwAAAAAQAEEaAAAAAIAACNIAAAAAAARAkAYAAAAAIACCNAAAAAAAARCkAQAAAAAIgCANAAAAAEAABGkAAAAAAAIgSAMAAAAAEABBGgAAAACAAAjSAAAAAAAEQJAGAAAAACAAgjSQRlqrxmtAznhVN9uGTtbV1++4Oq3IOcm5N2e7Zo1abSsAAACQjgjSQNqo07PTpCX1z6gs1zZ1suzyZ7RthVS5ps62pItiTatfpZGztmr/YxOUbVsBAACAdESQBtKCqciO0DIVKq+LQrTHhPUqaVGt6m1LenA+f+EkbU67+wIAAADiEaSBDnKHSS+Nr+zWL/WGKK/Y7Rw0r9ENKQylrl/qhOhZW7V21lxd6bum+x7tDnVuUfU1dlh0aDPXSPDeyd4nqDbvq73P3IX3BQAAAHQHgjTQiUyIvnLRPK1tOaJpRbaxXS3Km3BE+2cWq3Cm8+eEc8MB1QzFbn+oc47KHnNe57zn2lnOoRke7VxLuRP0YIt/mHjy9+lW6XpfAAAAQIoI0kAn8UJ0uZbU365C2xbStMYs8mWrxXGV3Lf0bGGkmnxDnROgbU+7FWm3uht67UJF1XLjKr/R7zNgzVuRgJ6wSuyck2J12KvCR78+6WcOfF8LVe0ukpbgWgAAAMBxQJAGOoEJvF6ITrRQWJWWqdKtGO9v2aoZ1ZN0d1WL7fPmRu9b0RTuHzgtTzeE+9tgQmbhJA3cYF7nbBukZYtsXxzvfRQ6t6VJS14fkdr7tMP9AeH1VdoWVWVu6zP7pXJfc1XZkMq1AAAAgO5BkAaOkQnRw80CXrMqk6y27QTsCcV2v1jFs6TNDW+5R61VS7SsbJXuKs9xj93VqzfM0+Zpj7e76FZr3Xptdl57RWgIedHt3tDuBNz3mbXVN9w8R2XzVkkpvE9bmtwfEOZpbdzw8+Sf2S+1+0rtWkAQf/nLX+weAABAcARp4FgsGuGEaGnJhlUa6ey7C4wF0NTgBPDzC6JDaL8CjbS7bUn02ryCcrsXzT3Xub/w8GizmVWybX+HVE/Sle4PCCVxQ9lT1SX3BaTgiSee0OTJk3XgwAHbAgAAkDqCNHBM7HDuogm6a0W5lo2JniecVswiZO7waP8WP587dWZRta2a0YEfEKJ0+n0B7bvmmmv0wgsv6Atf+IIuv/xy1dfz4DUAAJA6gjRwLHzDubPLl2tJWZUq56a+GJZbQX69Ifr8Qw0pVWQTvdat8CaQ8H2OVVmB8lSsK9wfEBZ2aIh4l9wXkIKTTz5Z9913n7u/YcMGXXTRRfr617+ul19+2W0DAABoC0Ea6DTmMVTeYljDU1ztOru8Mn7xsTFzNXLF5HYrsqHXPhuqBu9eqCuTLDYW/z7e3O7wCti5BRqoKm2qs/3Na7Qy6cJl0bwfEDr2/Od27wvoQldddZUuuOACffzxx/roo4/0n//5nxo5cqQGDx6sX/ziF/YsAACAeARpoFN5i4W5835TCpbO+Xalbm+OsLeC94Phxcfa4ry2fpX2jbFzix8p0JIki42FzlX4fU7S8Jqx2hZeJCy0yJntnytNWZF4vnU8b4GwjswRb/++gHgm+P7973/Xn/70J7333ntqamrS7373O73++uvau3ev/uu//ktbt27Vli1b9Pzzz+vnP/+5fvazn2nVqlVauXKlHn74Yf34xz/WokWL3Ep0VlZW+LoffvihfvWrX+mKK67Q5z73OT27cZ8+PnrU7QcAAAjJOuqw+0CPtvW1Q/rlay264tJBtgXoHC/tPKAzPpWlK78+wLZkPhMozfbBBx+0+Wcq53T2uUeOHLF3mZgZtn3KKadE/Zmozfz5/vvv65VXXlHs/xWeccYZOu2003THtYP1jcEfqH/RQtsDZK4DWy5T7sVPqk/eaNsCAEiGII2MQZBGV+mKIG2GEqcSGmP/TOWczji3LSeddFKb4fR494UqzKkYP368nnvuOR0+fNg9/uQnP6lTTz1V8+fPdxck+2P9nTrcWq9+hQvcfiCTEaQBIHUEaWQMgjS6ypa6N/Xiuof1+X6nJQyhycJoW3+aIJ2MCYLJQmJbAbK7+kyQzgQHDx7Uueee6w7pNgHafO+33367Kisr9alPfco9p3XnbII0eg2CNACkjiCNjEGQRlcxFemV91boc3lnJg2XbQXPjvSh633/+9/X/fffrxNPPFEVFRWaM2eOzjzzTNvrIUijNyFIA0DqCNLIGARpdJXeOEc60/3v//6v+vfv7y4qdvfddys/P9/2RCNId7Ldjyur7GHNr96lO4psG9IGQRoAUseq3QCAXueNN97Qq6++qp/85CdJQzQ62x+0+t87P0S3/HyWsvoNcbbHtcO2AQDQ1QjSAIBep7i4WF/84hftEbqeE6KnjtLV1SUq6GebOknOtxbp6KFNeqrsYdUGfgSfxwvjs7S62TYAANAOgjSQxlqrxoefR+3u22ctR20pPa86pE4rcsarOvyXxdjjY2Pu8YaqFnsEoEczw7CnblTsv9GhCvC4n//BOXpNC5z9Be0E2Jaf36urNV/bH5au/oH/mqm9vj07lqUY0ps3alxcYP6Dap+Xntq9SBNzbRMAAO0gSAPpqnmN7q4Zq20zi22DY9ZW7W854tu2asaiEWkTXrPLl2tUTUWnBXMA6cWE6NzrTejcpXXfil6YrU3/fKuOPjpaQ031+AcX2UbjQt1x6NiHeg+dsUtHD3U8CJf8gBANAAiGIA2kqfo1kzTwugnKtseJFat4lt01nPB9Q0yFuX5pqGptqs8jtExVqiw8SSt2xx5753vnRSreUSHdvf5CVfur49esUavtlnJUdl2hKuf62wBkAi9E12p+dYLQ+crjdp5yornKf1DtD0ZF+p9+x/kvRUjyinT8cGszPNx5/bLX3KMdyyL7rnC1OZUqt3ctr6p+pnLcz9M51XEAQO9AkAbSkRNYVy6ap+J2qzR1qnPOm1Ie+WtpcsWaZirYKteS+iOaVhR7bM7xwvW+FU3hivfAaXkxFe+5qmyojFTEqyfpbn9/UYnTtl51VKWBzLH7cRuiE1eP57zRT82HTFXYm6s8LBxw7dzo8x53+mz/G5OjA3ASZu7z9ltqdfXT3rmh4eHNMy50j5O7UHdUX2/3kzlTJZeVaP3zOyPDzHfv0pyy+ZrSiQuhAQAyF0EaSEeHGrS5rEB59jBs0YhIJdjdTEW5Xk2dFFpbq5ZoWdkq3RUO5k7Y3jBPm6c97rxLiBO8J4SGm3sV8c0Nb9lj41zllVVpU116DDcHcIzsI6vURsicf+1oW2X2AqreOOQF1N3P6Won1G4Ph98zNfEH8zX2vp+mtLDX0KvMuZO14OcbNd0MKf9B6H3atuOVN9qdL53zzyUaW12rWnsfO155WGMvuyil6wMAQJAG0lBroxNbzy+IH9YdN0e6SUuc0Fq5JsiCY8k1NVTFv2+/Ao20u6nJUd75seEaQI9UPUe57nOfH3e2OZruDoVOXcvBN5wA3k8F9tiV20+D7W67ckfroYdLNOf6OdLDt6Ywj7lWVxcNUe1XUpjznHuRxpXVquGQOfiDGt4o0bh/DjDvGwDQqxGkgTTkBtqUmDnJ86RFtb6K8fGXV1Bu9wD0dN5wbm+49PrrRx23OcTrG96xe20pcRdCS23xMq96PueV16TmnVrnvLaEBccAACkiSANpKHAQTTQMvAPc9329IXqhMDPM3O6mKvUfAgCkNf9w7qLJ2n6LNKcsdjGx5HL6nydVH1KDPXY1H9Ieu9uuZjuku9oO8e7kEO8O775vl1a/WisxrBsAEABBGkhD2fmF8YE2oRZVPzJXI0u/5g3Hzi3QQPnmJ7uLlnm7qcgur4xZPKxOK8Y4118xWc4dpahFTa9LIwvOtccAMsXQGXYxsQTPl06o6PL4xcd+MEfrb/lOCsO0vXPdId1Fdoi3L8QXFPjmYjt2PO1c1+6nzB3e/bCudsI6w7oBAEEQpIF0ZOYlVzeoyR6GxS02lqfK87fqwbjFwfK8/rnSlBX+6rZZHMx73JW3Enf8sVnJ26zUHVrMzKzgHbl+Kt5SU3W5RhVT2wEyj10szMydTilMO+c/alfqdh9/ZVfwbnflbfN4K+fc6ut1s31edc63bo0K5e6xnPtwr2vmRT+u+W5PEHZxtDKGdQMAgsk66rD7QI+29bVD+uVrLbri0kG2pWczz39eWRA0xKaB3Qs14OUS7Z8ZWtm753tp5wGd8aksXfn1AbYFvUXrztk63FqvfoULbAsyjXle9XTdqnU2sPdmB7ZcptyLn1SfvNG2BQCQDBVpIE0VTlgl1byUwvDudGKGmtf7Ho8FAOnsD6p9nmHdAIDgCNJAusqdoLtK12v40s55tFV3aK2q0KbS5SpjiCSAdGeej91vlNZdlspjtQAAiEaQBtJYdvkzPWqItLnfHjcUHUDvVDRZRw/tYkg3AKBDCNIAAAAAAARAkAYAAAAAIACCNAAAAAAAARCkAQBAB/1Bq6d6z3FOtC3YbU8zmjdqXFv9bVxr3M//YM+x3IXCQv2Pa4dtDjGPtIr0z9LqZtsBAEAnIUgDAIBjMr96l7twV+x2R5E9wYToolqN2+3r3z1fe8riQ3L8tR7X4OtHRc4zIbrsDT1lr9X88BsaNnWjWrxeN0TnXn+etodeX32eri6KD9sAABwLgjQAAOhSLa/Wan1ZiUr8j5nKHa2HHi7R+ud3hkNwYhdqijmv4R33aMcrD0u3fCf8yKqcfy7R2Opa1bpVZ/Nc6FqNffhyDXV7HUWX66myh1UbVf0GAODYEKQBAECXyul/nlQ9RytjwmzOtxbp6KOjFeSheUNn7NLRGRfao9iQfqYmPhr7SKt31FBtdwEA6CQEaQAAcEzmlIXmI/s333Dqoslqfrgk+jzfcOw2NW/U9OtrNf8rkfDssvOkc6+XnvpB8jDe8vOfOu87X1NCw8wBAOgEBGkAAHBMEs+RnhwZXu1wq8+2b/stTkP1HOU6QTh2jnRcKC+aIz28KTLfOsQJ5971vqOGotiFyzzefOm2gzYAAB1BkAYAAN3KHZ5tQnD19Vp//XNRC4ElCuXRQ7VjXagSJ5jPeeU1e+wJh+jdi8LzqQEA6CwEaQAA0IW8x1rFPcLK6NdPY/WGGlJ+PFUb1/LZscwM+TYrdxOiAQBdgyANAAC60JmaeK2pPI+KG3694+k5Wu9bgbt9oWv5qti7H9ew+0r01FXeHGpTiR523/VOiI4eWg4AQGciSAMAgGOSeLExZ1tmh1ub+cz2udH+/sUFm6JW4E6Ju3DZGxoWuo77TOlQ5fk1rby+1vnz4Ui/3dqrYgMAEETWUYfdB3q0ra8d0i9fa9EVlw6yLUDneGnnAZ3xqSxd+fUBtgW9RevO2TrcWq9+hQtsC5C5Dmy5TLkXP6k+eaNtCwAgGYI0MoYJ0i/uarJHQOc6/5x/IEj3QgRp9CYEaQBIHUEaGWP3m+/ZPaBrFP2/Z9k99BYEafQmBGkASB1BGgCAJAjS6E0I0gCQOhYbAwAAAAAgAII0AAAAAAABEKQBAAAAAAiAIA0AAAAAQAAEaQAAAAAAAiBIAwAAAAAQAEEaAAAAAIAACNIAAAAAAARAkAYAAAAAIACCNAAAAAAAARCkAQAAAAAIgCANAAAAAEAABGkAAAAAAAIgSAMAAAAAEABBGgAAAACAAAjSAAAAAAAEQJAGAAAAACAAgjQAAAAAAAEQpAEAAAAACIAgDQAAAABAAARpAAAAAAACIEgDAAAAABAAQRoAAAAAgAAI0gAAAAAABECQBgAAAAAgAII0AAAAAAABEKQBAAAAAAiAIA0AAAAAQAAEaQAAAAAAAiBIAwAAAAAQAEEaAAAAAIAACNIAAAAAAARAkAYAAAAAIACCNAAAAAAAARCkAQAAAAAIgCANAAAAAEAABGkAAAAAAAIgSAMAAAAAEABBGgAAAACAAAjSAAAAAAAEQJAGAAAAACAAgjQAAAAAAAEQpAEAAAAACIAgDQAAAABAAARpAAAAAAACIEgDAAAAABAAQRoAAAAAgAAI0gAAAAAABECQBgAAAAAgAII0AAAAAAABEKQBAAAAAAiAIA0AAAAAQAAEaQAAAAAAAiBIAwAAAAAQAEEaAAAAAIAACNIAAAAAAARAkAYAAAAAIACCNAAAAAAAARCkAQAAAAAIgCANAAAAAEAABGkAAAAAAAIgSAMAAAAAEABBGgAAAACAALKOOuw+AADwad05W4db69WvcIFtATLXgS2XKffiJ9Unb7RtQU914Fdv2z3g+Pj8P51j9zIXQRoAgCQI0uhNCNKZo/rfX9KfWv9sj4DulX9err4y7iJ7lLkI0gAAJEGQRm9CkM4cJkifdnof/eOF+bYF6B6/3v6mPv2ZU3tFkGaONAAAAAAAARCkAQAAAAAIgCANAAAAAEAABGkAAAAAAAIgSAMAAAAAEABBGgAAAACAAAjSAAAAAAAEQJAGAAAAACAAgjQAAAAAAAEQpAEAAAAACIAgDQAAAABAAARpAAAAAD3ce3puZq7OmblerbYF6EoEaQAAAAA92941ulEPadfSscq2TUBXIkgDAAAA6Ln23q9zJt4jDcjvgSHaVtIHTtFz70qtNVN0ziO7bB/SGUEaAAAAQLdKFhj3PGJCZa6W73UO3l2vqTZgJrdLy50QffPqat28vMx7neW+R7Kh3ild+9ikFIpDlfR909RYkqsht0gPlA+xnUhnBGkAAAAAx50J0eXLb1PVvmZVDLKN7Xk3X1e55w9RhfPnVTnv2Q4pu3Sl3k73od6DbrL36N3/2/tW6vK+tg9pjSANAAAA4LjyQnSpHqi9SYNtW0hj1RS3Su1usRXmljUaEuobOEXbdZbtaKci7ZegOu1Wxh/ZFXWNUFtYG1Vt87oht9RIy8uiXr+8xrzGu9fn3t2l5c5+wiq6Ga4+8H7tse1IPwRpAAAAAMeNCY9eiE5Uja3RYk3T2261tlo3b5quOTW26uzOjX7NeZ3pc7bVF+rGks4drp1d+iM9MMAeBGCq4bvuK5UqqqOq4otvOaipqVSeB92kqgq7j7REkAYAAABwXIQrtxXTkgRLJ2CH5wwP0XAnXG5sbHT239NzT9yj0ff9KPI6N3zW6MaqTlys692tTpTvxEXMKobHVdwT26Vt+/urvz1C+iFIAwAAAOh+y8u8xbVWP6TRMQuFta9RjZukC86ODOU2+ueX2r1OYIZl3yvNv66bF//aNF1DBm7TcB7lldYI0gAAAACOAzuce9BYzb+vVIsndu0q2oHFDMvuNqPMKt7xc8WRXgjSAAAAALqfbzi3Oxd5VI1uvDeFxcFc+cofJf3mncgq3cbBxhq7B3QtgjQAAACA4+wsXb7UW0xsSHvPXnY553/3Nm28ZXakir33fm/RsqDPYe6brwtUo8YWe/zuej263O77uMPGl28Lr6S9p2q6Ntr9jon9MWCXnjbzxdEjEKQBAACANPOrX/1KR48etUe9xRBVrL7Nm5ucSpg2z2B2V+q2j79yV/DuyHOYvfddPNFe515pqllxO4ZXNb9H5e7jq3K1bagT/G1fItlFY9y538kfY3WWLr/1IemWQd77mnnR5vOjR8hy/gXtbf+GAgCQktads3W4tV79ChfYFiBzHdhymXIvflJ98kbbFhxP69at01133eVuV1xxhbKysmxP+6r//SWddnof/eOF+bYF6B6/3v6mPv2ZU/WVcRfZlsxFRRoAAABIM2PHjtUHH3ygb3/72xo4cKAbrKl/AemDijR6nN1vvqeaHW/ZI+DY3TT+n3R6n5PtERBBRRq9CRXp9PPMM8+4QfrEE0/URx99pPPPP1/z5s3TuHHj2qxQU5HG8dKbKtIEafQ4JkhXb3tLF13A/zng2G3c9oYWXDuMII2ECNLoTQjS6cf8NT0/P19NTU3u8QknnKCPP/5YX/ziF7VgwQJ961vfcttjEaRxvBCkgTQWCtJXjymyLUDH/O39D/Uf618lSCMpgjR6k9ggfckll+iXv/ylW/k0mwlxof1kbe0dJ2rrDddN1JbKOWZ7/fXX9dxzz7kV6RDTbv4KbyrU99xzj775zW/aHg9BGscLQRpIYwRpdBaCNNpDkEZvEhukd+7c6Ya10GYqof7jRG0dOaerrpuorSeeY6rRu3bt0pEjR9z/XQwTpD/xiU+4wftHP/qRbrrpJrcthCCN44UgDaQxgjQ6C0Ea7SFIozdhaHf6MaH63HPPdcO0+Su7Ccsnn3yyPvnJT2rGjBlugP6Hf/gHe3YEQRrHC6t2AwAAADiu1q5dq+bmZjdEm/B85plnauHChXrnnXfcx2IlCtEZ5d31mup/BrN7bJ/1bLfle22f6z09NzO6P/F5ybXWTIl+7cz1arV9ncb9HFP03LvmYJeWJ33ONNIZQRoAAABIM6Yaffvtt7tDunNzc/XjH//YrUzPnDlTffr0sWdlMicU37tBpbU3abA5NOGzxBw36+19dqt9SL+ZmKupNe+5rwi5ebXvHN95bYdpL4QPeXGMdvleWzVguoZ0adAdoorVUvkju+wxegqCNAAAAJBmVq9e7Q7jfvLJJ3Xw4EFNnTpVp5xyiu3tBfau0Y0Dpunyvt5h6+4N2jhqjIbZY1ffsZp/X6k2vri17aqxc96jq2/T4onJA3FrzWzdqIe0a+lYZds2Y/B1e/XAqHv0qC+s73nEV7E2my8Em4r21Jr1Wm77QuHd/5qpVQe9xpBBE/TA/rKUq+ZIDwRpAAAAIM0MHDhQb7zxhiZNmuQ+R7p3eU/PPXGPbh46xB5L2WdfKG2arqdjwmZ26Uq9HRN+Exo0XDfrNR10h1PHek/bX6zR6EtGJLjOWbp8abMeLT3LPTKBuHy/E7hDVWsnoGt5dAjeeMsG5dvKecWg2NfsVen+e7TRnus5S8MuKdXiHVSlexKCNAAAAJBmCgsLo1bi7l0a1bipVPk59tAYdJN23eeEzYmRym6w+cv5yh9Vo8YWexjFvJ90wdleWG7L4OucMOwP7m5AjxFVOd+lbculm78beo0TzG99SLFL+rk/FCzfxlzpHoQgDQAAACB9vNuo3+hC9fcP43a41WdbCa6qcBo2mfnL8XOku0NkUbIyLbZtCbmfJeZHgb75usDuhuX0d8J1soo50hFBGgAAAED6aDkYM/Q5nlsZtkOrN96yJoVKboIqd5ipVku/eaf9QB4K0ENuuVBVbqivjq9Id0SicI20RpAGAAAAkD7c6qyft6J2wspzqpXcvdu0OEGV2+PNUU62aJm7UJi7oJg3l9pbFdyuJt4eNyDHDCl3q9QxErUhrRGkAQAAAKQPN3z6w/FZuvy7pvI8KG5l6z1V07WxIrK6d0Lm0VkT73ECcPLwm136Iz2g6RoSM+/aXShseakeKI8sfBapXJuA387Qbg3RVWZu9xOh65rHejn37O77uFX4ZEEf6YggDQAAACCNJFgYbNBN4edBhxcbc7ZH8/fq7esiIdeIWpDMbPb502YF7eS81bm950ZHXuuttr3SBnVvoTA5gd7rH6TG75rHYznv2caK22Zud+S6zmsuiV9srPWd16SK4alVuZEWso467D7QI+x+8z1Vb3tLV48psi1Ax/zt/Q/1H+tf1YJrh+n0PifbViCidedsHW6tV7/CBbYFyFwHtlym3IufVJ+82L/io6ep/veXdNrpffSPF+bblh5o7/0654n+cc91zkymsj1bujUU2HuuX29/U5/+zKn6yriLbEvmoiINAAAAIL0MmqAHtEHbe8Mq1nvX6MYB7QxPR9ohSAMAAABIM2YY9RjVlNyf4c9W3qXlE6WqmOHpSH8EaQAAAADpp+9YPZrq6tg91hBVZPxnzEwEaQAAAAAAAiBIA8dNi6qvOUkDrlmT8JmFAAAAANITQRo4XnY/rkqt0rbHJvSC1SgBAACAzEGQBo6H3Qs1YMxc6fwCQjQAAADQwxCkgZR4w7BX7LaHYXVakXOSBuQsVL1z1Fo1PoWh2s5rnBA9Y8NWzVg0IuqaKb2+eY1ucN8zssXfV4ravZYdfh5zjtluqGqx5/iYHwiizhuv6mbb5+N+znbOAQAAANIVQRroMBOiR2jZrK3a33K7Cm1ru5rP1RUtRzStqFjTnD+v6BcJpNnlz2h/e0O9cyfoQed1+1ucIO4czthgruV1BWJCdOF6jao317Jb/SrtGxMfks17hM+x7z1wWl7UefVLnVA8pl5Loq43VpsKo69nQvTwaYVaGzpnQ6EqC70fIgAAAICegCANdIgN0WWrtG1msW0LadCzvipuXOX20OMa7qvG1inHdrRfkY6q5C6tta0+URXhtiu9rXXrtblsrIpzbYPhhPS7VpRrc81L7VTVi3WFOa/hLe/Qed8rF81zwvEzKou53oNOONe0CnsvLaqrqdLIFZMjPzwUTdaSsrmq62hVHQAAAOhmBGkgMDPc2YboRNXj6rnSdaFq6zxtDodIhzs32le1dauxqQ1tjq3krtVcLbN9roDXzs53omz1JD0bE2BTqorHqH/Z+cyzShJX5Z0wPWVWlTbVmR8UclT22BE9WB758UB6S03VdhcAAADoAQjSQCAmROep0gl+M65LEjadgH1FaKh1UYlmqEpNh8yB89pH5mrkiuWRqm3R7VrrhMzKNXW2IZn4Sm7hTG9ot6cD13b6t60o17IxoQq2s6X6KK7mNbp7WpVmfNVU41vU9Lo0suBcry+BvAJf9TpGa9US90eJ8HcGAAAApDmCNBDAsjFOiNYqrXUDaNB5vV7ldWC+vxrrhcz2JXrtucors7sdvLZbfQ5VuGc5DdWT3GHnscPRo8K22QonSSuaOjY328ersktL5vEIMAAAAPQcBGkgCDucu7B8uTuv98pUK7g9QOHM0JBwMxz98agfCeIXG/MPz85R3vlKWnE2mhqq4irW4RBdHzOvGgAAAEhzBOkoLVr97SxlfXu1s4fu8O6776qpqckepb/IcO4clc1bpZHVk3R37GJiSXkV5H2N0eebkNm+RK/1zy0Oem3vsVZxC6EZ/Qo00onRTSnM2w4p/Oo8aVFt4gp98xqtXFSuUcWRarlZ4dub702IRvf561//qo8//tgeAQAAdFzWUYfdD2THD7M0bK49iDNWTx1cp4l59rBHMWF6urQ0wf03rda4/us0rsd+tvRj/lJ74YUX6qKLLtIdd9yhz3/+87Ynud1vvqfqbW/p6jHdOanWmxvddF3Mo6bcBb7MM6G9drfKWjPWtwiZt7q3Qo+oCi8IZgNkzHH8633cc+WET+9RWyaMXrnI9/irdq4dx+2P3HuIe11t1X53NfIknzsB737Ko9/PfcSWNww8VMGOLJoW4JFhXeRv73+o/1j/qhZcO0yn9znZtiJTffDBB7r00kv1ve99T//yL/+ik046yfYk17pztg631qtf4QLbAmSuA1suU+7FT6pP3mjbgp6q+t9fUvPv37NHQPc676LP6SvjLrJHmavDQTpK3QJlLS1Q888m+h7k05O1qKUpRzmE5W7x05/+VJMmOWHLMW7cON1111360pe+5B4nklZB2uEPtFc0thOkDRtgPdHBs80g7fBCqFdlHrlilQZOc763FK+dkA26m+2hMdIXeoMEaVfU+xux92AfG2aP/KLft3sQpHufBx98UBUVFfrsZz+rO++8U9dee60++clP2t54BGn0JgTpzPHu23+we8Dx0fecM+1e5uq6IO1Wb6/Wenvor1K71Wxt19E7h9o+UwXO1bryZq2bEPsX6R1akLVYBasH6+qJc2zbfG0/eodCr45+r/l6avUeXV01zt6Pef0w5zJHdYd93G/LmnHKNf0zG5TrXCR8LfM5hobeI3S/9v3NvqhIdwVTlTaV6Lfeeksnnniijhw5olGjRmn+/PkaMmSIPSvi+ARpZCKCdO9jqtL9+/dXa2urG6BPPvlk3XLLLbrpppv06U9/2p4VQZBGb0KQBoDUdc0caRtsBzvh1eT0o0eb9dT49bp6pjf3eOil86W5tU7EtZpqte6Z+bo5LkSHOK+tcoJ6+FpzNOyHoVc7Qdd5L61u9t7rYIHWTYzE9zYV36Ht8+y+G6L3OOHZ3vMOJ7j3H6fVTUM1xQnx6DonnHCC5s2b5/5pQrTxwgsvuMO9hw8frtraWrcNAI7VKaecorvvvluf+MQn9P777+v//t//q4ULF6pv3766/fbb9T//8z/2TAAAgOS6bWh3uAqcoErs9h242Veh9mujomyuleC93Yr3r59qvyL9swKt/HaDpvysRLUJKuLmOos/v13jqmpV8LM7NLST5kibv8Rt27bNHsEw/xia7+Tvf/+7bfFkZWW5fUVFRXrsscdUWFhIRRqdJlSRHnOB9MlP2MZezv0hMcBmRpQkak+2BT0/tHXm68wPdkuWLNHf/vY39zjkU5/6lNs3depU3XrrrcrLy6MijV6FijQApK6Lg7QXYkODpTU+FG5DIdULrma/9tJI0I3WdpBWghDeVmgP97tV69AQ8fhzjNB580PtnRSk77vvPruHkA8//NCtSps/Q0yINlUjsyCQ+Uvt7Nmz3WOCNDpLKEg/ftc4/e3PVCIN8+9de5sZPZKoPdkW9HyzdfV77N69Oy5Im6HepmL9ne98R7fddhtBGr0OQRoAUtdFQToSoMeu9sJydLh1hF9ToJVZtSrxz3mO0kVB2n8vbQVp/7U7KUgj3oIFC6KCtPnL7KmnnqrKykrdcMMNOuOMM9x2gyCNzsIc6d5p06ZN+sY3vhGeSmLmSZvK9b/9279p7ty5ys2NrNBHkEZvQpAGgNR1zRzpulrNMdVnJ6PHLx5mFZdo/jPrVLvGOXdeSZIQ3b6cgsHSrxvcudchDQdSnCMdVqCC8dKehuhn6ga/DjriL3/5i+699143RJuKkFlN95577tE777zjPhLLH6IB4FjNmTNHH330kRugzYgX8ygss9jhihUrokI0AABAMl0TpI1nGtRgd0312RtK7TdUJfPWuytxz7+0ozHa4QbyqzV9jQ3BTau1OOr51rEheYdWxt1LjibOnK/1E6drdZNtcu552Nyxeupfj+HekBLzOJo///nP6tevn+6//34dOnRI3//+9935igDQmV588UXt2rXLHd49ceJE/f73v3fXXzj77LPtGQAAAO3rmiDtroY9R8NC89HMEO4d851wvU61oaDqcFfv1nyV+IZTBzdUdxx8SpqY671X/waNWz1W+lKBHbbthOSlvn4zjNzcSyznnr2Vuu09uyt4M4S7q5lqdE1NjZ588kk1Nja6z3Q186A7lXlWcs5C1dtD7/gkDfBtK3bbvh7APEt6gP/zxEjeb54JbT5vgj7z/Gfne7ihKnpURvg116xRq20Jnett8dfy3j95f4h73tI6exTR3uvNc7sT95tnVCd/P8AwU0gmT57sBuif/OQn7qOwAAAAguqcIG1CaHi+sWfonb5VUk2fOedogmDa7rBuJyg71/DPXc6ZsC76/fImal3ovY7eoRLbHBbTPzTB/brcewydl+Be3esQrjvbyy+/rEmTJrnPkO58ThCcu16j6m9XoTk0IbrQHB/R/ha71a/SvjGJQmQaK6vXSn+4DXFC7vBpVfYgxu7HVal5mlE2VytjP2vR7dq/YZ42T6tQdbNtc9QvzXNes0rbHpugbNNgQvSYei2x39+2FfW6MiZkD59WqLX2u43rt0xYTnif7bzehOgrX3fuJ2F/saZtkK5MEM4B409/+pOeeOIJrVy5Uuecc45tBQAACK7rhnanYMcLxzis2zCLlmUtUPiZ1Hbo9jFfF93itNNOc/73y7JHXcCEx/MrVWanPbbWrdfmsrEq9k+DzJ2gu1aUa3PNS77AF6re2s0fBm2Fu9pfOY0Ji8mrpkbMtf3Bz1zbuVZ16PVJQ+FYjTp/vep8odeof3muZswKPRw9mukbWTpZV5TGflbLCdNrZ1WpstDerxNqr1xUriXzbIh2mGtoVuT7zC4eq5HVoftwPtcjznusmOz9aOHILq/UjHC/w44GMGF5xizbFtbe6+tUt0iacV3kfuKuXzRZS14f0aNGGKD7mPUWCgoK7BEAAEDHHZ8gbVa/dsLTMG2PqjR3SHHMMPIEq2+jt/KC2YyvRv5hyM53Ilr1JD0bE7Syy5/R/lDV1Q26edpU2uRVrJ1t7fmTNDwq1M5VZUOl7d/qhLlJuttWeU21NXnV1Lt25flb7Wub3OAXFZida20qsO89M/k/yMVfLdSmOn9l2QTNeU67PYxi+so1qjgnJvxGK5zpfBbns61culA3jHG+uw3PhEOzUTgz+p6if5h4S03V0sB8/1iPc5VXVhV1n6M2mM99u+I/WXuvL9Y05zuZ5l+svblB++yuJ0fFpeVa9jJVaQAAAHSd4xOkQ0OtfY+sOhZRw8idjRANjwlm5crrZw+NotudYOsErTG+inBMNdkbAr1Kd5VHAp0bMBct8Q17LteSCaF/0IpVPEva3PCWPY4WFdLNtavnaW04jOaobN4qjYy5tgm87Soq0UB/ZXl3rZbNKglXc/1aq5ZoWSjw5k7QFFN5XpMobJrh0fO0edFcbZ61NTq0+pkh3m5lWVEVa3PvUd+38/nyzre7hvPeZW0+tayd18eoXzPJuc9IhdxwfyxZVMtcaQAAAHSZ4zq0G+hSbrWyUHm+kGW4wdZWi9ea4cXVkzTcCYWhOdKtjU4Es23hsJ0zQsvc3vZ5w41Drx8fNefYvXZZgaKm2ecWaKDdDcYJ8L7h3e6wbl/1PaJFdTVVUUOiC786L2nYdIdvG22FUTOn2v0OK9VUeHwWa3PnSy/y/yhh9SvQSOfOmxJU3AEAAIDOQJBG5jrUoM12Nxl3qLIJhO5CW49HgmNZZGh2ZIse5pycNwTZHbZdZuYcm0DdNatJF3610FaW7bDuRNVetwqu6Cr8GBOWEyw6FpoXXW/ufW4KC3d51fjIUOoqNR2yu64WNb1ud1OS2uvDIbrFLiLn1+EfJgAAAIDUEKSRudzKpJ+Zn5xkdW5fFdObR90g35PaOihHZY+ZQO3NO67bneTacfN8Aygq0QxTOW5jWLe3QFhoTnZkM9X4qEXHzEJgTsAeuWK5ynJDQ85H+L6vNr4/l5nPLO1r9Pd7w+tTGqqe0uu9e/DmoCcI0caxfJ8AAABACgjSyFxuZdI/xNcJh9eZynNe3FDkqLm2ZuXn2GqsOyc4taqy+xxk/7xrE3Jlq8Vx13aC4dz4eb6pMxVh53pmYbCEw7rtStcJ+gonOEHZv+K2ex9b9WBobnhoNfPwI7FC35+vch+qYLvzxeP7o+Zmt6v918c9jisRdyRC/JB+AAAAoLMQpJHBvBWfo4YKm7m99rnRkfnPJ2mlWSXbvwDYY2ZxsRGRc8Yo8TDiBLLLl2uJfHOs3ecuh15rrm1X6nb77QrebazO3R53vnMoqMdwg2iSPuV+TaPM0PM1Nd5K4lGLoHncz+IOT7c/IriLtdXryqjP5hvyHtPvPhO6rdAbq63XN6/RykXOn3Hz16PnaLvz0JNU5wEAAIDOkHXULHMN9CC733xP1dve0tVj2lz+2WMqyY8UtF3BRAYxQ78rpHmpzWf/2/sf6j/Wv6oF1w7T6X1Otq1AROvO2TrcWq9+hQtsC5C5Dmy5TLkXP6k+eaNtCwAgGSrSyGxmKLUSPzMZGcgsrHZ+R4fJAwAAAKkhSCPD5ahs3lhtCg1NRgar0wozBP8YhskDAAAAqSBII/PlTtCDKc5vRk9mHjvG/84AAADoegRpAAAAAAACIEgDAAAAABAAQRoAAAAAgAAI0gAAAAAABECQBgAAAAAgAII0AAAAAAABEKQBAAAAAAiAIA0AAAAAQAAEaQAAAAAAAiBIAwAAAAAQAEEaAAAAAIAACNIAAAAAAARAkAYAAAAAIACCNAAAAAAAARCkAQAAAAAIgCANAAAAAEAABGkAAAAAAALIOuqw+0CPsPvN91S97S31O+sM2wJ03K//v2YtuHaYTu9zsm0BIlp3ztbh1nr1K1xgW4DMdWDLZcq9+En1yRttWwAAyRCk0eOYIH2g6X/tEXDsLis+lyCNhAjS6E0I0gCQOoI0AABJEKTRmxCkASB1zJEGAAAAACAAgjQAAAAAAAEQpAEAAAAACIAgDQAAAABAAARpAAAAAAACIEgDAAAAABAAQRoAAAAAgAAI0gAAAAAABECQBgAAAAAgAII0AAAAAAABEKQBAAAAAAiAIA0AAAAAQAAEaQAAAAAAAsg66rD7AADAp3XnbB1urdeJJ3/GtgCZ688tW5R78ZPqkzfatgAAkiFIAwCQhAnSR/7+rj0CMt/pn/s2QRoAUkCQBgAAAAAgAOZIAwAAAAAQAEEaAAAAAIAACNIAAAAAAARAkAYAAAAAIACCNAAAAAAAARCkAQAAAAAIgCANAAAAAEAABGkAAAAAAAIgSAMAAAAAEABBGgAAAACAAAjSAAAAAAAEQJAGAAAAACAAgjQAAAAAAAEQpAEAAAAACIAgDQAAAABAAARpAAAAAAACIEgDAAAAABAAQRoAAAAAgAAI0gAAAAAABECQBgAAAAAgAII0AAAAAAABEKQBAAAAAAiAIA0AAAAAQAAEaQAAAAAAUib9/6cW34LbGr8DAAAAAElFTkSuQmCC&quot; style=&quot;-webkit-user-drag: none; -webkit-tap-highlight-color: transparent; margin: 0px; padding: 0px; user-select: text; border: none; vertical-align: baseline; color: rgb(15, 71, 97); font-family: &amp;quot;Segoe UI&amp;quot;, Tahoma, Verdana, Sans-Serif; font-size: 8px; font-style: normal; font-variant-ligatures: normal; font-variant-caps: normal; font-weight: 400; letter-spacing: normal; orphans: 2; text-align: left; text-indent: 0px; text-transform: none; widows: 2; word-spacing: 0px; -webkit-text-stroke-width: 0px; white-space: pre-wrap; text-decoration-thickness: initial; text-decoration-style: initial; text-decoration-color: initial; width: 649px; height: 306px;&quot;&gt;&lt;br class=&quot;Apple-interchange-newline&quot;&gt;" style="text;whiteSpace=wrap;html=1;" vertex="1" parent="1">
          <mxGeometry x="-139.00172413793103" y="657.9951724137932" width="550" height="331" as="geometry" />
        </mxCell>
      </root>
    </mxGraphModel>
  </diagram>
</mxfile>
